<svg enable-background="new 0 0 199.904 42.52" height="42.52" viewBox="0 0 199.904 42.52" width="199.904" xmlns="http://www.w3.org/2000/svg"><g fill="#026937"><path d="m54.347 11.001h-3.03v-1.215h7.335v1.215h-3.015v9.51h-1.29z"/><path d="m59.582 9.157h1.125v5.684c.586-.869 1.396-1.274 2.445-1.274 1.561 0 2.52.87 2.52 2.385v4.56h-1.17v-3.944c0-1.351-.555-2.01-1.754-2.01-.676 0-1.261.255-1.636.72-.39.48-.39 1.035-.39 1.77v3.465h-1.14z"/><path d="m68.236 17.331v.105c0 1.455.93 2.4 2.221 2.4.9 0 1.619-.48 2.174-1.455l.871.584c-.676 1.215-1.725 1.83-3.105 1.83-2.039 0-3.42-1.47-3.42-3.66 0-2.114 1.395-3.584 3.346-3.584 1.965 0 3.225 1.334 3.225 3.555v.225zm2.041-2.774c-1.096 0-1.92.704-2.041 1.845h4.08c-.074-1.186-.824-1.845-2.039-1.845z"/><path d="m79.082 9.786h1.275v10.725h-1.275z"/><path d="m82.457 13.807h1.125v1.034c.584-.869 1.395-1.274 2.445-1.274 1.559 0 2.52.87 2.52 2.385v4.56h-1.17v-3.944c0-1.351-.555-2.01-1.756-2.01-.674 0-1.26.255-1.635.72-.389.48-.389 1.035-.389 1.77v3.465h-1.141v-6.706z"/><path d="m89.386 14.751v-.944h1.23v-2.7h1.17v2.7h1.23v.944h-1.23v5.76h-1.17v-5.76z"/><path d="m94.621 17.331v.105c0 1.455.93 2.4 2.221 2.4.9 0 1.619-.48 2.174-1.455l.871.584c-.676 1.215-1.725 1.83-3.105 1.83-2.039 0-3.42-1.47-3.42-3.66 0-2.114 1.395-3.584 3.346-3.584 1.965 0 3.225 1.334 3.225 3.555v.225zm2.041-2.774c-1.096 0-1.92.704-2.041 1.845h4.08c-.075-1.186-.825-1.845-2.039-1.845z"/><path d="m101.296 13.807h1.02v1.396c.6-1.141 1.23-1.621 2.25-1.621.27 0 .525.045.779.135l-.391 1.035c-.254-.09-.494-.135-.705-.135-1.215 0-1.814.87-1.814 2.625v3.27h-1.139z"/><path d="m106.171 13.807h1.125v1.034c.584-.869 1.395-1.274 2.443-1.274 1.561 0 2.521.87 2.521 2.385v4.56h-1.17v-3.944c0-1.351-.557-2.01-1.756-2.01-.676 0-1.26.255-1.635.72-.391.48-.391 1.035-.391 1.77v3.465h-1.139v-6.706z"/><path d="m120.39 20.511h-1.109v-1.215c-.541.976-1.395 1.5-2.43 1.5-1.92 0-3.211-1.425-3.211-3.615 0-2.249 1.275-3.614 3.15-3.614 1.125 0 1.949.511 2.459 1.5v-1.26h1.141zm-3.344-5.805c-1.381 0-2.191.885-2.191 2.416 0 1.619.811 2.534 2.236 2.534 1.35 0 2.189-.885 2.189-2.43.001-1.559-.945-2.52-2.234-2.52z"/><path d="m121.261 14.751v-.944h1.229v-2.7h1.17v2.7h1.23v.944h-1.23v5.76h-1.17v-5.76z"/><path d="m126.451 9.741c.465 0 .84.391.84.855s-.375.824-.84.824-.84-.359-.84-.84c0-.464.375-.839.84-.839zm-.571 4.066h1.154v6.704h-1.154z"/><path d="m129.599 14.616c.691-.689 1.59-1.05 2.58-1.05s1.875.375 2.58 1.065c.691.675 1.066 1.574 1.066 2.549 0 .976-.375 1.861-1.066 2.535-.705.69-1.604 1.08-2.58 1.08-.99 0-1.889-.375-2.58-1.064-.705-.705-1.064-1.575-1.064-2.551 0-.974.359-1.873 1.064-2.564zm2.58 5.1c1.336 0 2.416-1.109 2.416-2.535 0-1.424-1.08-2.534-2.416-2.534-1.35 0-2.43 1.11-2.43 2.534.001 1.425 1.096 2.535 2.43 2.535z"/><path d="m137.234 13.807h1.125v1.034c.586-.869 1.396-1.274 2.445-1.274 1.561 0 2.52.87 2.52 2.385v4.56h-1.17v-3.944c0-1.351-.555-2.01-1.754-2.01-.676 0-1.26.255-1.635.72-.391.48-.391 1.035-.391 1.77v3.465h-1.141v-6.706z"/><path d="m151.455 20.511h-1.109v-1.215c-.541.976-1.396 1.5-2.432 1.5-1.92 0-3.209-1.425-3.209-3.615 0-2.249 1.275-3.614 3.15-3.614 1.125 0 1.949.511 2.459 1.5v-1.26h1.141zm-3.346-5.805c-1.379 0-2.189.885-2.189 2.416 0 1.619.811 2.534 2.234 2.534 1.352 0 2.191-.885 2.191-2.43 0-1.559-.945-2.52-2.236-2.52z"/><path d="m153.435 9.157h1.17v11.354h-1.17z"/><path d="m166.814 17.497c0 1.965-1.365 3.284-3.436 3.284-1.693 0-2.879-.899-3.283-2.489l1.154-.57c.314 1.305 1.051 1.979 2.129 1.979 1.291 0 2.146-.825 2.146-1.995 0-.959-.555-1.664-1.666-2.145l-1.305-.555c-1.424-.601-2.115-1.53-2.115-2.836 0-1.499 1.23-2.639 3.016-2.639 1.289 0 2.25.555 2.775 1.619l-1.051.676c-.465-.811-1.051-1.23-1.814-1.23-.961 0-1.635.645-1.635 1.561 0 .764.465 1.305 1.439 1.725l1.529.675c1.412.599 2.117 1.589 2.117 2.94z"/><path d="m173.16 20.257c-.615.359-1.381.539-2.25.539-2.086 0-3.451-1.455-3.451-3.569 0-2.19 1.486-3.66 3.496-3.66.75 0 1.469.165 2.084.465v1.229c-.57-.375-1.199-.584-1.859-.584-1.471 0-2.49.99-2.49 2.58 0 1.35 1.006 2.43 2.4 2.43.719 0 1.365-.256 2.07-.766z"/><path d="m174.375 9.157h1.125v5.684c.584-.869 1.395-1.274 2.443-1.274 1.561 0 2.521.87 2.521 2.385v4.56h-1.17v-3.944c0-1.351-.557-2.01-1.756-2.01-.676 0-1.26.255-1.635.72-.391.48-.391 1.035-.391 1.77v3.465h-1.139v-11.356z"/><path d="m182.878 14.616c.691-.689 1.59-1.05 2.58-1.05s1.875.375 2.58 1.065c.689.675 1.064 1.574 1.064 2.549 0 .976-.375 1.861-1.064 2.535-.705.69-1.605 1.08-2.58 1.08-.99 0-1.889-.375-2.58-1.064-.705-.705-1.064-1.575-1.064-2.551 0-.974.359-1.873 1.064-2.564zm2.58 5.1c1.336 0 2.416-1.109 2.416-2.535 0-1.424-1.08-2.534-2.416-2.534-1.35 0-2.43 1.11-2.43 2.534.001 1.425 1.097 2.535 2.43 2.535z"/><path d="m191.039 14.616c.689-.689 1.59-1.05 2.58-1.05s1.875.375 2.58 1.065c.689.675 1.064 1.574 1.064 2.549 0 .976-.375 1.861-1.064 2.535-.705.69-1.605 1.08-2.58 1.08-.99 0-1.891-.375-2.58-1.064-.705-.705-1.064-1.575-1.064-2.551-.001-.974.358-1.873 1.064-2.564zm2.58 5.1c1.334 0 2.414-1.109 2.414-2.535 0-1.424-1.08-2.534-2.414-2.534-1.35 0-2.43 1.11-2.43 2.534 0 1.425 1.094 2.535 2.43 2.535z"/><path d="m198.734 9.157h1.17v11.354h-1.17z"/><path d="m52.312 28.583c.46-.459 1.06-.699 1.719-.699s1.249.25 1.719.709c.46.45.709 1.05.709 1.699 0 .65-.25 1.24-.709 1.689-.47.46-1.069.72-1.719.72-.66 0-1.259-.25-1.719-.71-.47-.469-.709-1.049-.709-1.699-.001-.649.239-1.249.709-1.709zm1.719 3.398c.889 0 1.609-.74 1.609-1.689s-.72-1.688-1.609-1.688c-.9 0-1.619.739-1.619 1.688s.729 1.689 1.619 1.689z"/><path d="m57.852 28.673h-.859v-.629h.859v-1.289c0-1.34.22-1.899 1.289-1.899.23 0 .45.03.66.101v.789c-.2-.11-.399-.16-.6-.16-.57 0-.589.41-.589 1.27v1.189h1.188v.629h-1.169v3.838h-.779z"/><path d="m66.99 25.985c-.75 0-1.51.319-2.039.869-.55.569-.819 1.27-.819 2.109 0 .659.159 1.219.489 1.688.57.81 1.439 1.269 2.408 1.269.9 0 1.689-.369 2.34-1.129v1.129c-.711.51-1.539.78-2.409.78-.759 0-1.489-.229-2.108-.659-1.039-.721-1.609-1.799-1.609-3.068 0-1.109.369-2 1.119-2.729.73-.7 1.609-1.05 2.658-1.05.85 0 1.609.26 2.35.77v1.109c-.691-.748-1.451-1.088-2.38-1.088z"/><path d="m70.742 24.945h.75v3.788c.389-.58.928-.85 1.629-.85 1.039 0 1.678.58 1.678 1.589v3.038h-.779v-2.628c0-.899-.369-1.339-1.17-1.339-.449 0-.838.17-1.088.479-.26.32-.26.69-.26 1.18v2.309h-.76z"/><path d="m76.662 28.583c.459-.459 1.059-.699 1.719-.699s1.248.25 1.719.709c.459.45.709 1.05.709 1.699 0 .65-.25 1.24-.709 1.689-.471.46-1.07.72-1.719.72-.66 0-1.26-.25-1.719-.71-.471-.469-.711-1.049-.711-1.699 0-.649.24-1.249.711-1.709zm1.718 3.398c.889 0 1.609-.74 1.609-1.689s-.721-1.688-1.609-1.688c-.9 0-1.619.739-1.619 1.688s.729 1.689 1.619 1.689z"/><path d="m82.72 30.243c0 1.179.27 1.729 1.25 1.729.979 0 1.238-.55 1.238-1.729v-2.199h.781v2.608c0 1.349-.701 2.049-2.039 2.049-1.32 0-2.029-.7-2.029-2.049v-2.608h.799z"/><path d="m87.921 30.393v.069c0 .97.619 1.6 1.479 1.6.6 0 1.08-.32 1.449-.97l.58.39c-.451.811-1.15 1.22-2.07 1.22-1.359 0-2.277-.979-2.277-2.438 0-1.41.93-2.389 2.229-2.389 1.309 0 2.148.889 2.148 2.369v.149zm1.358-1.849c-.729 0-1.279.469-1.357 1.229h2.717c-.05-.79-.55-1.229-1.36-1.229z"/><path d="m93.031 25.335c.311 0 .561.26.561.57s-.25.549-.561.549-.561-.239-.561-.559c0-.31.25-.56.561-.56zm-.381 2.709h.771v4.467h-.771z"/><path d="m95.23 28.673h-.859v-.629h.859v-1.289c0-1.34.221-1.899 1.289-1.899.23 0 .451.03.66.101v.789c-.199-.11-.398-.16-.6-.16-.568 0-.59.41-.59 1.27v1.189h1.189v.629h-1.168v3.838h-.78z"/><path d="m102.078 32.511h-.738v-.809c-.361.649-.93.999-1.619.999-1.279 0-2.139-.95-2.139-2.409 0-1.498.848-2.408 2.098-2.408.75 0 1.299.34 1.639 1v-.84h.76v4.467zm-2.229-3.867c-.92 0-1.459.59-1.459 1.609 0 1.079.539 1.688 1.488 1.688.9 0 1.461-.589 1.461-1.619 0-1.039-.631-1.678-1.49-1.678z"/><path d="m102.912 28.673v-.629h.818v-1.799h.779v1.799h.82v.629h-.82v3.838h-.779v-3.838z"/><path d="m111.339 29.903v.77h-2.279v-.77z"/><path d="m119.259 25.985c-.75 0-1.51.319-2.039.869-.551.569-.82 1.27-.82 2.109 0 .659.16 1.219.49 1.688.568.81 1.439 1.269 2.408 1.269.9 0 1.689-.369 2.338-1.129v1.129c-.709.51-1.539.78-2.408.78-.76 0-1.488-.229-2.109-.659-1.039-.721-1.607-1.799-1.607-3.068 0-1.109.369-2 1.119-2.729.729-.7 1.609-1.05 2.658-1.05.85 0 1.609.26 2.348.77v1.109c-.69-.748-1.45-1.088-2.378-1.088z"/><path d="m123.009 24.945h.75v3.788c.391-.58.93-.85 1.629-.85 1.039 0 1.68.58 1.68 1.589v3.038h-.779v-2.628c0-.899-.371-1.339-1.17-1.339-.449 0-.84.17-1.09.479-.26.32-.26.69-.26 1.18v2.309h-.76z"/><path d="m128.929 28.583c.461-.459 1.061-.699 1.721-.699.658 0 1.248.25 1.719.709.459.45.709 1.05.709 1.699 0 .65-.25 1.24-.709 1.689-.471.46-1.07.72-1.719.72-.66 0-1.26-.25-1.721-.71-.469-.469-.709-1.049-.709-1.699 0-.649.24-1.249.709-1.709zm1.721 3.398c.889 0 1.607-.74 1.607-1.689s-.719-1.688-1.607-1.688c-.9 0-1.619.739-1.619 1.688s.728 1.689 1.619 1.689z"/><path d="m134.99 30.243c0 1.179.27 1.729 1.248 1.729.98 0 1.24-.55 1.24-1.729v-2.199h.779v2.608c0 1.349-.699 2.049-2.039 2.049-1.318 0-2.029-.7-2.029-2.049v-2.608h.801z"/><path d="m140.189 30.393v.069c0 .97.621 1.6 1.48 1.6.6 0 1.078-.32 1.449-.97l.578.39c-.449.811-1.148 1.22-2.068 1.22-1.359 0-2.279-.979-2.279-2.438 0-1.41.93-2.389 2.23-2.389 1.309 0 2.148.889 2.148 2.369v.149zm1.359-1.849c-.729 0-1.279.469-1.359 1.229h2.719c-.049-.79-.549-1.229-1.36-1.229z"/><path d="m145.3 25.335c.309 0 .559.26.559.57s-.25.549-.559.549c-.311 0-.561-.239-.561-.559.001-.31.251-.56.561-.56zm-.381 2.709h.77v4.467h-.77z"/><path d="m147.5 28.673h-.859v-.629h.859v-1.289c0-1.34.219-1.899 1.289-1.899.23 0 .449.03.66.101v.789c-.201-.11-.4-.16-.6-.16-.57 0-.59.41-.59 1.27v1.189h1.189v.629h-1.17v3.838h-.778z"/><path d="m154.347 32.511h-.74v-.809c-.359.649-.93.999-1.619.999-1.279 0-2.139-.95-2.139-2.409 0-1.498.85-2.408 2.1-2.408.75 0 1.299.34 1.639 1v-.84h.76v4.467zm-2.228-3.867c-.92 0-1.459.59-1.459 1.609 0 1.079.539 1.688 1.488 1.688.9 0 1.459-.589 1.459-1.619 0-1.039-.629-1.678-1.488-1.678z"/><path d="m155.179 28.673v-.629h.821v-1.799h.779v1.799h.82v.629h-.82v3.838h-.779v-3.838z"/><path d="m25.475 18.013c-.27-.101-.928-.313-1.031.113-.08.325.208.598.279.891.073.331-.055.716.171 1.015.327.424.829-.227 1.065-.442.212-.241.115-.602.037-.865-.087-.297-.216-.599-.521-.712"/><path d="m23.118 18.126c-.394.126-.863.04-1.222.243-.332.193-.482.979-.066 1.174.239.116.383-.214.512-.352.174-.175.383-.086.458.138.179.493-.031 1.029-.009 1.54.004.176.058.369.25.424.156.053.293-.01.388-.137.509-.715-.113-1.736.559-2.403.172-.204.053-.462-.14-.608-.219-.168-.484-.093-.73-.019"/><path d="m26.84 15.409c-.228-.128-.309.074-.363.261-.077.248-.263.311-.455.471-.375.291-.236.918.163 1.122.533.2 1.201.099 1.15-.581-.04-.44-.06-1.032-.495-1.273"/><path d="m23.286 7.41c-.256-.247-.618-.195-.904-.033-.149.082-.287.174-.454.229-.124.036-.265.087-.289.229-.074.286.255.482.396.682.198.26.349.566.637.746.447.271 1.142.229 1.46-.233.102-.303-.177-.548-.349-.752-.207-.266-.257-.624-.497-.868"/><path d="m28.191 18.896c-.313-.214-.739.027-.88.345-.114.274-.114.688.195.847.271.143.66-.015.739-.313.07-.27.245-.677-.054-.879"/><path d="m20.635 18.924c-.161.162-.036.52-.021.721.018.297-.209.608-.335.876-.156.31-.289.672-.132 1.011.229.486 1.092.707 1.379.15.249-.82.104-1.666-.287-2.422-.091-.171-.358-.577-.604-.336"/><path d="m20.197 17.838c.208-.059.575-.299.272-.501-.249-.179-.584.007-.864-.087-.276-.102-.944-.535-1.106-.058-.311.896 1.21.778 1.698.646"/><path d="m19.225 10.27c-.367-.239-.837-.164-1.255-.203-.434-.043-.763-.294-1.169-.413-.269-.079-.543-.007-.713.218-.157.206-.118.454.088.608.447.329 1.098.075 1.542.388.284.207-.004.479-.234.564-.267.102-.569.021-.849-.006-.467-.047-1.048.234-.571.684.164.156.355.276.536.408.147.109.246.26.36.406.215.274.821.885 1.051.246.141-.398-.188-1.077.329-1.285.447-.184.957.213 1.398 0 .58-.293-.198-1.406-.513-1.615"/><path d="m14.45 10.793c-.272-.104-.184-.324-.063-.502.132-.199.114-.385-.096-.519-.214-.148-.499-.177-.743-.274-.23-.08-.418-.249-.653-.333-.396-.155-1.043.099-.906.607.118.448.638.497.963.733.429.315.325.885.526 1.311.192.411.625.793 1.11.68.437-.043.611-.521.604-.899 0-.2-.028-.431-.167-.595-.143-.176-.376-.135-.575-.209"/><path d="m19.709 22.562c-.153-.062-.294-.144-.468-.153-.293-.02-.563.107-.825.237 0 0 .053.147.066.204.057.289.208.584.375.825.166.241.414.505.731.465.297-.037.482-.286.62-.521.15-.271.237-.578.449-.805.074-.088.15-.15.241-.189.02.004-.355-.06-.566-.047-.223.006-.407.069-.623-.016"/><path d="m18.58 20.441c-.008-.201-.038-.402-.085-.59-.043-.176-.061-.367-.155-.522-.072-.136-.245-.114-.377-.136-.19-.035-.378-.09-.575-.119-.428-.066-.844-.25-1.155-.045-.064.03-.088.332.014.476.098.144.211.274.309.412.217.333.424.661.635.993.105.163.212.328.31.499.073.136.15.28.273.382.114.088.261.129.408.142.063.006.135.019.195-.015.362-.166.203-1.477.203-1.477"/><path d="m19.271 19.012c-.347.365.056.832.167 1.207.033.11.168.698.369.506.382-.257.244-.778.212-1.158-.015-.219-.015-.468-.192-.621-.168-.128-.421-.087-.556.066"/><path d="m34.702 16.562c-.146.126-.381.042-.556.013-.279-.044-.643-.129-.691-.466-.052-.308.301-.557.587-.536.19.012.283.172.424.274.102.074.294.089.294.256 0 .155.093.342-.058.459m-25.534 1.172c.408-.053.386-.561.604-.814.271-.323.528.275.769.344.169.035.396.018.349.257-.044.259-.267.413-.503.476-.41.119-.938.107-1.219-.263m28.357 4.067c-.842.274-1.893-.049-2.601-.529-.302-.211-.571-.477-.761-.789-.116-.195-.219-.487-.462-.555-.446-.123-.115.672-.043.83.124.282.366.875-.03 1.059-.495.219-.664-.426-.783-.758-.488-1.377-1.694.674-2.117 1.068-.465.426-1.079.537-1.617.164-.501-.371-.796-.945-1.291-1.324-1.103-.848-5.123 1.064-4.482 5.174.066.436.114.799.15 1.113.383 1.596 1.137 2.543 1.541 2.867.585.477 1.931.365 1.865.939-.023.223-.282.291-.412.339-.13.047-.554.204-.908.035-.6-.499-.995-.029-1.209-.221-.474-.429-.871-1.208-1.272-2.14.045.321-.968-2.741-1.077-2.951-.212-.391-.376-.873-.673-1.201-.257-.287-.762-.407-1.122-.246-.439.207-.335.838-.233 1.207.168.691.484 1.336.749 1.996.292.729.409 1.492.646 2.229.097.284.563 1.584-.233 1.348-.335-.09-.638-.408-.827-.69-.206-.31-.213-.644-.182-1.007.015-.316.119-1.121-.4-1.104-.411.006-.909.533-.992.926-.114.5.495.809.568 1.275.047.307-.21.589-.514.628-.337.044-.645-.14-.94-.269-.1.289-.421.652-.763.5-.268-.123-.383-.421-.665-.537-.51-.192-.958.852-1.594.141-.45-.511 1.118-.654 1.784-1.014.618-.322 1.093-.854 1.471-1.426.403-.609.451-1.353.414-2.065-.041-.833-.128-1.655-.188-2.491-.038-.528-.038-1.155-.415-1.569-.281.034-.568.034-.85.081-.325.047-.645.138-.967.207-.241.056-.579.115-.795-.049-.223-.178.031-.404.195-.509.245-.151.546-.221.741-.431.237-.246.245-.592.142-.896-.22-.636-.75-1.161-1.317-1.508-.453-.271-1.146-.496-1.558-.043-.425.452-.197 1.175.217 1.557.233.229.551.377.813.59.193.16.529.505.108.621-.318.096-.602-.197-.846-.352-.306-.18-.661-.274-1.01-.318-.59-.061-1.254.098-1.563.629-.095.151-.17.343-.148.521.019.125.109.313.017.432-.077.084-.251.088-.349.129-.26.102-.681.236-.785.271-.337.101-.573.269-.853.466-.491.351-1.054.451-1.349-.18-.204-.432-.284-1.307-.937-1.277-.35.008-.619.285-.964.299-.286.01-.551-.138-.762-.299-.386-.31-.794-.852-.71-1.379.11-.68 1.013-.445 1.412-.212.629.347 1.111.894 1.663 1.346.425.351.911.651 1.468.745.331.057 1.07-.064.904-.568-.12-.338-.538-.498-.648-.843-.182-.59.663-.546.989-.482.353.074 1.121.231 1.146-.327.028-.6-.602-.899-1.115-.978-.592-.091-1.398.105-1.803-.472-.43-.611.611-.934 1.044-.912.341.021.668.15.953.332.281.17.498.404.771.58.252.164.589.288.862.1.202-.139.263-.396.175-.615-.163-.429-.694-.591-.869-1.014-.112-.266.006-.572.266-.694.29-.136.604-.005.829.188.468.404.707 1.055 1.31 1.314.265.119.679.17.86-.119.155-.238-.031-.479-.25-.578-.333-.175-.946-.278-.93-.762.015-.609.586-.609 1.014-.383.255.141 1.328 1.029 1.595.592.119-.209-.08-.506-.141-.703-.069-.206-.062-.592.26-.562.429.039.545 1.012.96.882.158-.05.218-.243.363-.32.138-.069.299-.073.446-.105.346-.063.542-.326.845-.456.313-.147.623-.059.95-.1.326-.031.438-.268.667-.444.292-.232.558.006.832.116.255.104.484-.008.538-.276.053-.244-.028-.5.058-.747.097-.306.187-.528-.037-.804-.202-.244-.469-.419-.657-.673-.166-.224-.33-.468-.613-.536-.355-.082-1.024.025-1.012.502.009.321.302.538.578.66.114.047.253.047.334.156.041.057.128.104.092.189-.121.353-.508.576-.877.542-.164-.022-.342-.155-.512-.081-.166.072-.126.256-.211.389-.184.285-.581-.048-.719-.217-.112-.139-.137-.336-.268-.461-.042-.045-.302-.094-.373-.207-.324-.303-.653-.221-1.087-.189-.331.023-.854.15-.75.582.097.38.462.788.028 1.122-.337.274-.784.229-1.124-.011-.277-.203-.561-.488-.938-.431-.319.046-.072.347.016.483.227.362-.201.435-.474.435-.405 0-.812-.079-1.193-.235-.307-.126-.607-.283-.937-.361-.34-.08-.644-.021-.979.059-.408.104-.766.127-1.155-.064-.317-.16-.592-.385-.917-.531-.307-.132-.722-.182-.968-.418-.191-.182-.223-.49-.113-.724.151-.337.552-.248.762-.507.205-.254.422-.354.755-.289.303.064.524.232.624.527.08.258.08.529.234.768.217.335.588.32.937.255.365-.066.638.026.98.14.297.09.609.1.858-.111.159-.129.243-.372.139-.564-.179-.338-.729-.391-1.069-.449-.619-.099-1.042-.543-1.64-.703-.378-.101-1.231-.146-1.043-.744.21-.634 1.179-.657 1.582-.24.208.212.335.578.65.648.274.066.555-.053.834.013.21.045 1.147.649 1.257.188.068-.315-.245-.522-.4-.749-.183-.256-.207-.56-.22-.863-.016-.297-.067-.594-.32-.781-.266-.197-.614-.238-.88-.44-.487-.397-.516-1.164-.137-1.645.449-.573 1.146-.464 1.718-.15.287.161.619.415.975.374.278-.04.501-.305.461-.576-.085-.533-.922-.338-1.278-.484-.313-.14-.36-.497-.147-.752.198-.221.51-.334.804-.367.546-.063 1.223.076 1.331.697.062.335-.132 1.375.383 1.432.298.027.499-.318.797-.305.247.018.382.29.528.457.543.617 1.045-.334 1.569-.416.696-.103 1.046.8 1.7.883.292.039.685-.091.916.156.174.169.154.457.138.68-.028.336-.028.643.135.939.139.27.364.499.391.813.019.271-.14.602.072.832.199.213.584.217.847.124.323-.124.479-.405.468-.737-.002-.219-.105-.463-.049-.681.085-.284.464-.173.636-.044.211.146.43.336.702.225.494-.203.6-.998.203-1.336-.483-.42-1.022.117-1.372.439-.319.303-.993.652-1.374.221-.429-.494.626-.697.641-1.126.015-.481-.773-.652-1.006-.988-.181-.259-.11-.556-.19-.838-.066-.292-.307-.38-.57-.438-.378-.096-.607-.254-.887-.519-.22-.214-.464-.323-.732-.46-.237-.127-.429-.348-.331-.629.098-.271.383-.381.641-.294.433.146.848.819 1.359.595.24-.109.37-.421.32-.672-.044-.252-.269-.4-.498-.451-.255-.053-.548-.063-.687-.311-.123-.219-.107-.554.135-.697.255-.147.638-.234.927-.205.349.052.618.273.914.416.346.166.714.202 1.078.107.292-.074.651-.191.946-.057.277.131.277.471.12.697-.162.236-.435.194-.657.07-.299-.174-.485-.141-.816-.099-.213.035-.696.086-.742.358-.044.251.345.421.466.6.16.223.086.503.211.734.197.344.737-.215.892-.355.271-.26.921-.684.979-.018.027.36.015.566.38.736.27.129.438.442.539.71.167.431-.144 1.103.208 1.451.432.427.794-.252 1.083-.478.187-.143.508-.153.667.049.188.253-.088.479-.273.62-.117.085-.296.235-.203.396.06.116.205.15.328.116.264-.075.506-.308.755-.085.105.1.269.307.333.355.263.213.585.248.866.084.227-.143.329-.436.086-.615-.183-.152-.443-.166-.666-.242-.377-.127-.848-.415-.651-.881.178-.431.651-.366.979-.146.411.268.568.772.951 1.064.279.217.654.228.997.157.396-.08.536-.359.251-.681-.192-.208-.395-.377-.409-.688-.004-.254.112-.507.279-.699.254-.282 1.39-.903 1.462-.157.052.52-.636 1.016-.367 1.532.321.618 1.201.256 1.728.431.235.078.539.256.561.529.025.281-.248.5-.49.559-.57.152-1.154-.099-1.472.537-.134.258-.293.547-.629.357-.254-.138-.413-.418-.705-.492-.311-.078-.534.166-.629.429-.07.198-.168.517-.442.472-.266-.049-.427-.366-.589-.546-.194-.22-.471-.419-.784-.392-.737.072-.463.881-.217 1.279.228.376.646 1.178-.062 1.353-.758.181-.865-.948-.934-1.422-.084-.53-.387-1.187-1.057-1.028-.284.064-.542.316-.484.625.052.316.343.551.551.786.31.347.624.831.69 1.305.075.512-.434.787-.891.634-.346-.114-.351-.428-.392-.732-.031-.197-.156-.465-.398-.462-.383.011-.675.528-.923.763-.28.262-.734.225-1.073.381-.176.077-.317.217-.313.427 0 .276.206.423.454.506.337.114.572.261.852.479.271.213.452-.008.554-.256.114-.27.267-.444.569-.502.343-.066.689-.051 1.037-.119.372-.072.735-.201 1.113-.072.296.108.545.32.85.397.802.216.782-.714.962-1.219.128-.374.243-.741.354-1.115.091-.278.243-.542.497-.696.576-.348 1.143.232 1.101.805-.044.492-.429.906-.397 1.405.016.24.198.435.445.459.218.022.397-.136.529-.294.348-.422.521-.906 1.024-1.197.492-.289 1.114-.297 1.642-.074.441.181.861.68.566 1.166-.229.385-.803.457-1.208.422-.489-.031-1.087-.234-1.535.052-.656.429-.167 1.124.253 1.503.155.139 1.214.879.671 1.072-.253.088-.472-.031-.632-.215-.191-.219-.347-.322-.611-.431-.331-.133-.308-.388-.354-.69-.042-.281-.234-.473-.478-.592-.463-.223-1.104-.23-1.58-.021-.303.139-.365.465-.164.729.184.244.474.385.726.557.305.199.622.379.991.443.294.063.632.076.856.296.182.165.311.488.032.642-.285.156-.578-.105-.763-.301-.207-.206-.474-.39-.762-.189-.201.137-.35.455-.622.457-.275 0-.403-.336-.516-.525-.149-.231-.39-.344-.666-.291-.51.111-.609.715-.325 1.089.432.565 1.208.348 1.819.524.173.059 1.249.32.727.621-.26.152-.576.07-.862.121-.308.043-.491.285-.531.574-.077.457.079 1.053.415 1.368.184.171.446.22.669.097.293-.176.19-.459-.01-.664-.188-.189-.433-.354-.451-.65-.024-.33.342-.246.531-.139.263.15.525.484.86.478.277-.011.549-.259.594-.534.097-.533-.79-1.203-.393-1.699.433-.523.814.405 1.255.355.276-.027.319-.396.441-.584.165-.256.525-.268.788-.176.58.2.594.832.675 1.342.09.572.339 1.21.891 1.492.676.332 1.455.063 2.085-.249.312-.124.598.109.624.425.043.372-.283.608-.613.716m-1.615 1.586s-.612.508-1.014.597c-.313.065-1.031.021-1.343-.159-.313-.178-.391-.451-.29-.727.132-.38.533-.649.929-.736.205-.055.423-.041.624.037.198.082.335.242.521.334.393.201.652-.171.947-.359.138-.086.615-.177.553.126-.089.394-.635.667-.927.887m-7.407 13.793c-.068.187-.171.359-.306.51-.138.15-.306.271-.503.362-.197.089-.428.137-.687.137-.272 0-.52-.056-.733-.159-.212-.105-.39-.247-.536-.426-.146-.18-.256-.388-.326-.619-.072-.23-.109-.479-.109-.742 0-.449.093-.85.273-1.188.183-.332.409-.622.676-.86.266-.235.55-.427.848-.563.294-.144.564-.248.803-.314l.049-.012.124.345-.046.022c-.175.078-.345.168-.504.27-.162.105-.312.229-.443.364-.134.138-.249.301-.343.481-.076.146-.136.317-.179.503.052-.026.112-.047.179-.069.122-.04.258-.059.414-.059.238 0 .452.035.633.107.181.074.335.173.456.301.124.127.218.282.276.456.059.173.09.366.09.575-.001.197-.037.393-.106.578m-3.803.127c-.079.172-.197.325-.348.455-.148.131-.327.234-.535.309-.205.078-.436.118-.69.118-.225 0-.435-.03-.627-.083-.189-.054-.358-.137-.5-.24-.141-.105-.254-.237-.333-.379-.08-.151-.122-.318-.122-.502 0-.156.026-.293.076-.416.046-.124.112-.234.196-.334.085-.097.183-.182.304-.262.088-.064.186-.122.287-.178-.226-.15-.4-.313-.519-.486-.132-.195-.198-.429-.198-.702 0-.179.044-.351.132-.506.085-.159.201-.294.34-.411.141-.117.306-.209.483-.274.353-.13.718-.12 1.058-.044.169.039.317.1.449.184.133.085.241.197.32.328.082.136.124.299.124.486 0 .163-.037.307-.108.432-.069.121-.154.224-.248.311-.095.086-.193.16-.294.218-.056.028-.104.054-.144.073.122.066.244.14.36.216.126.081.239.177.339.284.099.107.177.233.233.371.06.141.089.303.089.484.001.194-.042.376-.124.548m-3.715 0c-.084.172-.2.325-.349.455-.15.131-.328.234-.536.309-.206.078-.438.118-.69.118-.226 0-.436-.03-.625-.083-.192-.054-.359-.137-.503-.24-.143-.105-.253-.237-.332-.379-.079-.151-.119-.318-.119-.502 0-.15.023-.291.071-.416.049-.126.116-.236.2-.334.081-.097.18-.182.3-.262.09-.064.188-.122.289-.178-.227-.15-.4-.313-.519-.486-.134-.195-.199-.429-.199-.702 0-.179.045-.351.133-.506.085-.159.199-.294.339-.411.142-.117.303-.209.484-.274.354-.13.722-.12 1.059-.044.167.039.318.1.449.184s.239.195.321.328c.079.136.12.299.12.486 0 .163-.035.307-.106.432-.069.119-.152.224-.25.311-.096.088-.191.16-.293.218-.047.023-.097.052-.143.073.122.066.242.14.359.216.126.083.242.177.339.284.102.107.178.233.235.371.059.141.089.303.089.484.001.194-.043.376-.123.548m-3.64.761h-2.624v-.428l.549-.035c.104-.006.176-.031.213-.068.023-.025.052-.091.052-.248v-2.51c0-.129-.038-.221-.112-.271-.084-.059-.211-.096-.374-.107l-.332-.025v-.367l.044-.01c.088-.013.188-.039.303-.068.117-.03.239-.071.361-.125.124-.051.244-.113.354-.182.111-.066.205-.143.28-.227l.02-.019h.46v3.911c0 .157.027.223.053.248.036.037.107.063.21.068l.544.035v.428zm-11.187-18.13c.081-.184.333-.201.501-.145.311.105.626.202.934.319.193.075.438.058.583.229.15.181.092.443-.019.631-.238.412-.772.27-1.104.062-.229-.136-.424-.337-.624-.525-.158-.14-.377-.339-.271-.571m.453-2.1c.205-.199.387-.422.567-.646.132-.175.325-.458.595-.371.212.076.258.349.235.544-.026.271-.23.473-.351.711-.074.158.104.398-.099.518-.274.146-.6.039-.896.049-.152.01-.397-.01-.429-.199-.036-.249.226-.45.378-.606m7.708-12.835c.327-.377.896-.286 1.307-.099.528.25.929.694 1.37 1.07.472.409.976.789 1.368 1.29.193.095.223.374.098.535-.158.209-.436.024-.609-.06-.537-.281-1.174-.012-1.721-.26-.203-.101-.413-.379-.201-.57.144-.128.189-.375-.03-.438-.503-.158-1.112.155-1.535-.26-.309-.315-.336-.87-.047-1.208m9.98-.44c.158-.779 1.304-.865 1.864-.491.392.249.296.759.271 1.15-.022.486.303.876.51 1.29.074.363-.023.848-.413 1.002s-.64-.165-.795-.475c-.236-.448-.475-.863-.793-1.259-.279-.338-.744-.719-.644-1.217m3.313.718c.133-.204.404-.193.619-.193.576.006 1.142.247 1.522.674.167.194.411.47.27.746-.11.213-.392.21-.602.184-.595-.049-1.136-.355-1.569-.761-.167-.162-.405-.41-.24-.65m7.358 12.575c.133-.171.378-.157.574-.142.444.034.898.24 1.144.628.209.333-.236.716-.569.628-.2-.068-.268-.275-.418-.404-.167-.143-.411-.123-.593-.242-.147-.097-.255-.311-.138-.468m2.606 1.168c.179.171.322.518.068.681-.222.146-.561.01-.69-.201-.209-.346.34-.828.622-.48m-16.316-19.024c-11.742 0-21.26 9.518-21.26 21.258 0 11.738 9.518 21.261 21.26 21.261 11.743 0 21.26-9.522 21.26-21.261 0-11.74-9.517-21.258-21.26-21.258"/><path d="m26.897 35.656c-.082 0-.156.014-.227.045-.065.022-.119.049-.171.09-.017.089-.029.186-.035.282-.011.106-.015.21-.015.319 0 .188.009.373.026.539.017.164.048.314.091.438.04.125.1.221.172.286.068.066.159.1.269.1.161 0 .282-.074.363-.224.087-.164.132-.421.132-.769 0-.334-.048-.61-.14-.818-.087-.194-.239-.288-.465-.288"/><path d="m22.74 34.75c.056.057.121.109.201.157.075.052.156.101.256.152l.215.119c.082-.073.154-.165.217-.286.066-.129.103-.293.103-.479 0-.232-.05-.4-.153-.5-.104-.098-.236-.148-.396-.148-.181 0-.33.047-.446.14-.118.095-.173.229-.173.403 0 .1.015.182.046.25.032.069.075.134.13.192"/><path d="m19.98 36.535c-.073-.061-.152-.117-.242-.167-.095-.052-.192-.104-.294-.16l-.361-.186c-.138.101-.236.225-.299.374-.069.163-.104.34-.104.535 0 .261.07.452.217.587.145.134.327.204.547.204.217 0 .401-.059.55-.167.143-.109.216-.287.216-.53 0-.104-.021-.197-.063-.277-.043-.078-.1-.15-.167-.213"/><path d="m23.695 36.535c-.07-.061-.152-.117-.24-.167-.095-.052-.192-.104-.292-.16l-.363-.186c-.137.101-.238.226-.302.374-.066.163-.101.34-.101.535 0 .261.071.452.215.587.146.134.329.204.549.204.219 0 .401-.059.548-.167.145-.109.217-.287.217-.53 0-.104-.021-.197-.063-.277-.042-.078-.098-.15-.168-.213"/><path d="m19.023 34.75c.058.059.122.111.201.157.074.052.157.101.253.152l.216.119c.083-.073.155-.165.219-.286.068-.131.104-.293.104-.479 0-.232-.052-.4-.154-.5-.105-.102-.236-.148-.396-.148-.178 0-.33.047-.449.14-.113.095-.171.229-.171.403 0 .098.015.18.046.25.032.069.078.136.131.192"/></g></svg>